<?xml version="1.0" encoding="utf-8"?>
<!-- Generator: Adobe Illustrator 20.1.0, SVG Export Plug-In . SVG Version: 6.00 Build 0)  -->
<svg version="1.1" id="Layer_1" xmlns="http://www.w3.org/2000/svg" xmlns:xlink="http://www.w3.org/1999/xlink" x="0px" y="0px"
	 viewBox="0 0 174.1 64" style="enable-background:new 0 0 174.1 64;" xml:space="preserve">
<style type="text/css">
	.st0{fill:#012639;}
	.st1{fill:#C8102E;}
	.st2{clip-path:url(#SVGID_2_);fill:#FFFFFF;}
	.st3{enable-background:new    ;}
	.st4{fill:#FFFFFF;}
</style>
<path id="Path_1071" class="st0" d="M18.8,62.5L18.8,62.5z"/>
<rect id="Rectangle_1346" class="st1" width="174.1" height="64"/>
<g>
	<defs>
		<rect id="SVGID_1_" width="174.1" height="64"/>
	</defs>
	<clipPath id="SVGID_2_">
		<use xlink:href="#SVGID_1_"  style="overflow:visible;"/>
	</clipPath>
	<path id="Path_1072" class="st2" d="M39.4,43.4l-7.2-23.6c-0.9-2.8-2.5-3.9-4.6-3.9c-2.3,0-4.4,1.6-4.8,3.9l-6.9,28.1h5l6.5-26.9
		h0.2l7.3,23.6c0.5,2.1,2.4,3.6,4.6,3.6c1.9,0.1,3.7-1.1,4.5-3.6l7.3-23.6h0.2l6,23c0.4,2.6,2.8,4.4,5.4,4.2
		c2.4,0.1,4.5-1.4,5.3-3.6l9.9-24.8l6.5,11.9h-7.1v4.6h9.8l4.5,8c1.4,2.6,2.9,3.9,6.2,3.9c2.5,0,5.2-1.2,5.2-6.6V20.7h10.2
		c5.6,0,6.8,3,6.8,5.3s-1.2,5.3-6.8,5.3h-4.9v4.6h4.6c8.9,0,12.2-4,12.2-9.9c0-6-3.4-9.9-12.1-9.9h-10c-4,0-4.9,1.3-4.9,4.6v24.9
		h-0.2L83.4,19.7c-1.4-2.6-2.8-3.8-5.2-3.9c-2.4,0-4.6,1.6-5.3,3.9L62.8,45.6h-0.1l-6.6-25.9c-0.7-2.8-2.5-3.9-4.6-3.9
		s-3.8,1.1-4.8,3.9l-7.2,23.6H39.4z M145,20.7c5.6,0,6.8,3,6.8,5.3s-1.2,5.3-6.8,5.3h-15.1v16.5h5V35.9h8.9l8.5,11.9h6l-8.9-12.6
		c4.5-0.7,7.7-4.7,7.5-9.2c0-6-3.4-9.9-12.1-9.9h-13.8c-1.3-0.1-2.4,0.9-2.4,2.1c-0.1,1.3,0.9,2.4,2.1,2.4c0.1,0,0.2,0,0.3,0
		L145,20.7L145,20.7z"/>
</g>
<g class="st3">
	<path class="st4" d="M159,46.5c0-0.7,0.6-1.3,1.3-1.3c0.7,0,1.3,0.6,1.3,1.3c0,0.7-0.6,1.3-1.3,1.3C159.6,47.8,159,47.2,159,46.5z
		 M161.4,46.5c0-0.7-0.5-1.1-1.1-1.1c-0.6,0-1.1,0.5-1.1,1.1c0,0.6,0.5,1.1,1.1,1.1C160.9,47.6,161.4,47.1,161.4,46.5z M159.8,45.7
		c0.1,0,0.3,0,0.4,0c0.2,0,0.3,0,0.4,0.1c0.1,0.1,0.2,0.2,0.2,0.3c0,0.2-0.1,0.3-0.3,0.4v0c0.2,0,0.2,0.1,0.3,0.2
		c0,0.2,0.1,0.3,0.1,0.5h-0.2c-0.1-0.2-0.1-0.3-0.1-0.5c0-0.2-0.1-0.2-0.3-0.2c0,0-0.1,0-0.1,0v0.7h-0.2V45.7z M160,46.4
		c0,0,0.1,0,0.1,0c0.2,0,0.4,0,0.4-0.3c0-0.2-0.1-0.2-0.3-0.2c-0.1,0-0.1,0-0.2,0V46.4z"/>
</g>
</svg>
