<svg xmlns="http://www.w3.org/2000/svg" viewBox="14177.25 -125 42.501 42.501">
  <defs>
    <style>
      .cls-1 {
        fill: #4d4d4d;
      }

      .cls-2 {
        fill: #fff;
      }
    </style>
  </defs>
  <g id="Group_2215" data-name="Group 2215" transform="translate(12242 -1557.308)">
    <rect id="Rectangle_1163" data-name="Rectangle 1163" class="cls-1" width="42.501" height="42.501" transform="translate(1935.25 1432.308)"/>
    <path id="Path_905" data-name="Path 905" class="cls-2" d="M22.167,2.132a9.309,9.309,0,0,1-2.624.711,4.567,4.567,0,0,0,2-2.515,8.831,8.831,0,0,1-2.9,1.093A4.544,4.544,0,0,0,10.8,4.537a4.322,4.322,0,0,0,.109,1.039A12.952,12.952,0,0,1,1.531.82,4.656,4.656,0,0,0,.9,3.116,4.458,4.458,0,0,0,2.925,6.888a4.348,4.348,0,0,1-2.05-.574v.055A4.523,4.523,0,0,0,4.51,10.824a4.4,4.4,0,0,1-1.2.164,4.244,4.244,0,0,1-.847-.082A4.594,4.594,0,0,0,6.7,14.076a8.9,8.9,0,0,1-5.6,1.968c-.355,0-.738-.027-1.093-.055a12.944,12.944,0,0,0,6.97,2.05A12.831,12.831,0,0,0,19.9,5.111v-.6A9.864,9.864,0,0,0,22.167,2.132Z" transform="translate(1945.802 1444.208)"/>
  </g>
</svg>
