<svg xmlns="http://www.w3.org/2000/svg" viewBox="14221.874 -125 42.501 42.501">
  <defs>
    <style>
      .cls-1 {
        fill: #4d4d4d;
      }

      .cls-2 {
        fill: #fff;
        fill-rule: evenodd;
      }
    </style>
  </defs>
  <g id="Group_2216" data-name="Group 2216" transform="translate(12242 -1557.308)">
    <rect id="Rectangle_1164" data-name="Rectangle 1164" class="cls-1" width="42.501" height="42.501" transform="translate(1979.874 1432.308)"/>
    <path id="Path_908" data-name="Path 908" class="cls-2" d="M24.735,2.827A3.184,3.184,0,0,0,22.018.35,84.756,84.756,0,0,0,12.587,0,84.666,84.666,0,0,0,3.167.35,3.183,3.183,0,0,0,.44,2.827,27.44,27.44,0,0,0,0,8.771a26.961,26.961,0,0,0,.44,5.954A3.184,3.184,0,0,0,3.157,17.2a84.756,84.756,0,0,0,9.431.35,84.846,84.846,0,0,0,9.431-.35,3.173,3.173,0,0,0,2.717-2.478,26.916,26.916,0,0,0,.44-5.954A26.826,26.826,0,0,0,24.735,2.827ZM9.341,12.677V4.356c2.667,1.389,5.315,2.777,8,4.176C14.665,9.92,12.018,11.3,9.341,12.677Z" transform="translate(1989.103 1445.2)"/>
  </g>
</svg>
